<mxfile host="app.diagrams.net" modified="2024-01-19T06:10:42.825Z" agent="Mozilla/5.0 (Windows NT 10.0; Win64; x64) AppleWebKit/537.36 (KHTML, like Gecko) Chrome/120.0.0.0 Safari/537.36" etag="ClA7phe5fTxf-TSyxV3e" version="22.1.21" type="github">
  <diagram name="第 1 页" id="POW11fnQm5mWFkC5Kxqr">
    <mxGraphModel dx="1861" dy="420" grid="1" gridSize="10" guides="1" tooltips="1" connect="1" arrows="1" fold="1" page="1" pageScale="1" pageWidth="827" pageHeight="1169" math="0" shadow="0">
      <root>
        <mxCell id="0" />
        <mxCell id="1" parent="0" />
        <mxCell id="E60OoVWMno9rJtvesI1o-8" style="edgeStyle=orthogonalEdgeStyle;rounded=0;orthogonalLoop=1;jettySize=auto;html=1;exitX=1;exitY=0.5;exitDx=0;exitDy=0;" edge="1" parent="1" source="E60OoVWMno9rJtvesI1o-1" target="E60OoVWMno9rJtvesI1o-3">
          <mxGeometry relative="1" as="geometry" />
        </mxCell>
        <mxCell id="E60OoVWMno9rJtvesI1o-1" value="客人下单" style="rounded=1;whiteSpace=wrap;html=1;" vertex="1" parent="1">
          <mxGeometry x="120" y="120" width="80" height="40" as="geometry" />
        </mxCell>
        <mxCell id="E60OoVWMno9rJtvesI1o-2" value="&lt;font style=&quot;font-size: 18px;&quot;&gt;工单流程&lt;/font&gt;" style="text;html=1;strokeColor=none;fillColor=none;align=center;verticalAlign=middle;whiteSpace=wrap;rounded=0;" vertex="1" parent="1">
          <mxGeometry x="130" y="50" width="100" height="30" as="geometry" />
        </mxCell>
        <mxCell id="E60OoVWMno9rJtvesI1o-9" style="edgeStyle=orthogonalEdgeStyle;rounded=0;orthogonalLoop=1;jettySize=auto;html=1;exitX=1;exitY=0.5;exitDx=0;exitDy=0;entryX=0;entryY=0.5;entryDx=0;entryDy=0;" edge="1" parent="1" source="E60OoVWMno9rJtvesI1o-3" target="E60OoVWMno9rJtvesI1o-4">
          <mxGeometry relative="1" as="geometry" />
        </mxCell>
        <mxCell id="E60OoVWMno9rJtvesI1o-3" value="服务员接单" style="rounded=1;whiteSpace=wrap;html=1;" vertex="1" parent="1">
          <mxGeometry x="280" y="120" width="80" height="40" as="geometry" />
        </mxCell>
        <mxCell id="E60OoVWMno9rJtvesI1o-10" style="edgeStyle=orthogonalEdgeStyle;rounded=0;orthogonalLoop=1;jettySize=auto;html=1;exitX=1;exitY=0.5;exitDx=0;exitDy=0;" edge="1" parent="1" source="E60OoVWMno9rJtvesI1o-4" target="E60OoVWMno9rJtvesI1o-5">
          <mxGeometry relative="1" as="geometry" />
        </mxCell>
        <mxCell id="E60OoVWMno9rJtvesI1o-4" value="客人服务记录" style="rounded=1;whiteSpace=wrap;html=1;" vertex="1" parent="1">
          <mxGeometry x="440" y="120" width="80" height="40" as="geometry" />
        </mxCell>
        <mxCell id="E60OoVWMno9rJtvesI1o-11" style="edgeStyle=orthogonalEdgeStyle;rounded=0;orthogonalLoop=1;jettySize=auto;html=1;exitX=1;exitY=0.5;exitDx=0;exitDy=0;entryX=0;entryY=0.5;entryDx=0;entryDy=0;" edge="1" parent="1" source="E60OoVWMno9rJtvesI1o-5" target="E60OoVWMno9rJtvesI1o-6">
          <mxGeometry relative="1" as="geometry" />
        </mxCell>
        <mxCell id="E60OoVWMno9rJtvesI1o-5" value="客人评价" style="rounded=1;whiteSpace=wrap;html=1;" vertex="1" parent="1">
          <mxGeometry x="600" y="120" width="80" height="40" as="geometry" />
        </mxCell>
        <mxCell id="E60OoVWMno9rJtvesI1o-12" style="edgeStyle=orthogonalEdgeStyle;rounded=0;orthogonalLoop=1;jettySize=auto;html=1;exitX=1;exitY=0.5;exitDx=0;exitDy=0;entryX=0;entryY=0.5;entryDx=0;entryDy=0;" edge="1" parent="1" source="E60OoVWMno9rJtvesI1o-6" target="E60OoVWMno9rJtvesI1o-7">
          <mxGeometry relative="1" as="geometry" />
        </mxCell>
        <mxCell id="E60OoVWMno9rJtvesI1o-6" value="数据分析" style="rounded=1;whiteSpace=wrap;html=1;" vertex="1" parent="1">
          <mxGeometry x="760" y="120" width="80" height="40" as="geometry" />
        </mxCell>
        <mxCell id="E60OoVWMno9rJtvesI1o-7" value="提升服务质量" style="rounded=1;whiteSpace=wrap;html=1;" vertex="1" parent="1">
          <mxGeometry x="920" y="120" width="80" height="40" as="geometry" />
        </mxCell>
        <mxCell id="E60OoVWMno9rJtvesI1o-16" style="edgeStyle=orthogonalEdgeStyle;rounded=0;orthogonalLoop=1;jettySize=auto;html=1;entryX=0;entryY=0.5;entryDx=0;entryDy=0;" edge="1" parent="1" source="E60OoVWMno9rJtvesI1o-14" target="E60OoVWMno9rJtvesI1o-1">
          <mxGeometry relative="1" as="geometry" />
        </mxCell>
        <mxCell id="E60OoVWMno9rJtvesI1o-14" value="1、功能配置：系统派单次数、&lt;br&gt;系统派单等待时间、&lt;br&gt;未接单超时预计时间、&lt;br&gt;每日拒接单上限次数" style="ellipse;shape=cloud;whiteSpace=wrap;html=1;" vertex="1" parent="1">
          <mxGeometry x="-140" width="200" height="130" as="geometry" />
        </mxCell>
        <mxCell id="E60OoVWMno9rJtvesI1o-18" style="edgeStyle=orthogonalEdgeStyle;rounded=0;orthogonalLoop=1;jettySize=auto;html=1;exitX=0.875;exitY=0.5;exitDx=0;exitDy=0;exitPerimeter=0;entryX=0;entryY=0.5;entryDx=0;entryDy=0;" edge="1" parent="1" source="E60OoVWMno9rJtvesI1o-17" target="E60OoVWMno9rJtvesI1o-1">
          <mxGeometry relative="1" as="geometry" />
        </mxCell>
        <mxCell id="E60OoVWMno9rJtvesI1o-17" value="2、员工权限配置：&lt;br&gt;配置员工部门和功能权限、&lt;br&gt;配置服务员服务房间区域&lt;br&gt;" style="ellipse;shape=cloud;whiteSpace=wrap;html=1;" vertex="1" parent="1">
          <mxGeometry x="-260" y="120" width="200" height="110" as="geometry" />
        </mxCell>
        <mxCell id="E60OoVWMno9rJtvesI1o-19" value="3、服务类型和项目配置：&lt;br&gt;配置酒店对客服务的服务类型和项目" style="ellipse;shape=cloud;whiteSpace=wrap;html=1;" vertex="1" parent="1">
          <mxGeometry x="-280" y="220" width="230" height="120" as="geometry" />
        </mxCell>
        <mxCell id="E60OoVWMno9rJtvesI1o-20" value="&lt;h1&gt;1、功能配置&lt;/h1&gt;&lt;p&gt;系统派单次数、&lt;br style=&quot;border-color: var(--border-color); text-align: center;&quot;&gt;&lt;span style=&quot;text-align: center;&quot;&gt;系统派单等待时间、&lt;/span&gt;&lt;br style=&quot;border-color: var(--border-color); text-align: center;&quot;&gt;&lt;span style=&quot;text-align: center;&quot;&gt;未接单超时预计时间、&lt;/span&gt;&lt;br style=&quot;border-color: var(--border-color); text-align: center;&quot;&gt;&lt;span style=&quot;text-align: center;&quot;&gt;每日拒接单上限次数&lt;/span&gt;&lt;br&gt;&lt;/p&gt;" style="text;html=1;strokeColor=none;fillColor=none;spacing=5;spacingTop=-20;whiteSpace=wrap;overflow=hidden;rounded=0;" vertex="1" parent="1">
          <mxGeometry x="-300" y="10" width="150" height="110" as="geometry" />
        </mxCell>
      </root>
    </mxGraphModel>
  </diagram>
</mxfile>
